# File created by Blade
# Date/Time:  Wed Apr 08 17:31:45 2015
#---------------------------------------------------------
:version 1.10
:name HOM
:units
  mass 1.0
  length 1.000000
  angle deg
:documentation
     Acclaim Skeleton File
:root
   axis xyz
   order TX TY TZ RX RY RZ
   position 0.000000 0.000000 0.000000
   orientation 0 0 0
:bonedata
   begin
      id 1
      name Spine_dum
      direction 0.000000 1.000000 0.000000
      length 5.893853
      axis 0.0 0.0 0.0 xyz
   end
   begin
      id 2
      name LeftUpLeg_dum
      direction 1.000000 0.000000 0.000000
      length 3.697939
      axis 0.0 0.0 0.0 xyz
   end
   begin
      id 3
      name RightUpLeg_dum
      direction -1.000000 0.000000 0.000000
      length 3.697939
      axis 0.0 0.0 0.0 xyz
   end
   begin
      id 4
      name Spine
      direction 0.000000 1.000000 0.000000
      length 0.000000
      axis 0.0 0.0 0.0 xyz
      dof rx ry rz
   end
   begin
      id 5
      name Spine_dum1
      direction 0.000000 1.000000 0.000000
      length 16.447146
      axis 0.0 0.0 0.0 xyz
   end
   begin
      id 6
      name Spine_dum2
      direction 0.000000 1.000000 0.000000
      length 10.900383
      axis 0.0 0.0 0.0 xyz
   end
   begin
      id 7
      name Spine_dum3
      direction 0.000000 1.000000 0.000000
      length 10.900383
      axis 0.0 0.0 0.0 xyz
   end
   begin
      id 8
      name Head
      direction 0.000000 1.000000 0.000000
      length 4.527550
      axis 0.0 0.0 0.0 xyz
      dof rx ry rz
   end
   begin
      id 9
      name LeftShoulder
      direction 1.000000 0.000000 0.000000
      length 8.219464
      axis 0.0 0.0 -90.0 xyz
      dof rx ry rz
   end
   begin
      id 10
      name LeftArm
      direction 1.000000 0.000000 0.000000
      length 11.094937
      axis 0.0 0.0 -90.0 xyz
      dof rx ry rz
   end
   begin
      id 11
      name LeftForeArm
      direction 1.000000 0.000000 0.000000
      length 9.103875
      axis 0.0 0.0 -90.0 xyz
      dof ry rz rx
   end
   begin
      id 12
      name LeftHand
      direction 0.000000 0.000000 0.000000
      length 0.000000
      axis 0.0 0.0 -90.0 xyz
      dof rx ry rz
   end
   begin
      id 13
      name LeftHand_dum1
      direction 0.000000 0.000000 0.000000
      length 0.000000
      axis 0.0 0.0 -90.0 xyz
   end
   begin
      id 14
      name LeftHand_dum2
      direction 1.000000 0.000000 0.000000
      length 3.937000
      axis 0.0 0.0 -90.0 xyz
   end
   begin
      id 15
      name LeftHandThumb1
      direction 0.000000 0.000000 1.000000
      length 3.937000
      axis 0.0 0.0 -90.0 xyz
      dof rx rz ry
   end
   begin
      id 16
      name RightShoulder
      direction -1.000000 0.000000 0.000000
      length 8.219464
      axis 0.0 0.0 90.0 xyz
      dof rx ry rz
   end
   begin
      id 17
      name RightArm
      direction -1.000000 0.000000 0.000000
      length 11.094937
      axis 0.0 0.0 90.0 xyz
      dof rx ry rz
   end
   begin
      id 18
      name RightForeArm
      direction -1.000000 0.000000 0.000000
      length 9.103875
      axis 0.0 0.0 90.0 xyz
      dof ry rz rx
   end
   begin
      id 19
      name RightHand
      direction 0.000000 0.000000 0.000000
      length 0.000000
      axis 0.0 0.0 90.0 xyz
      dof rx ry rz
   end
   begin
      id 20
      name RightHand_dum1
      direction 0.000000 0.000000 0.000000
      length 0.000000
      axis 0.0 0.0 90.0 xyz
   end
   begin
      id 21
      name RightHand_dum2
      direction -1.000000 0.000000 0.000000
      length 3.937000
      axis 0.0 0.0 90.0 xyz
   end
   begin
      id 22
      name RightHandThumb1
      direction 0.000000 0.000000 1.000000
      length 3.937000
      axis 0.0 0.0 90.0 xyz
      dof rx rz ry
   end
   begin
      id 23
      name LeftUpLeg
      direction 0.000000 -1.000000 0.000000
      length 16.181467
      axis 0.0 0.0 0.0 xyz
      dof rx ry rz
   end
   begin
      id 24
      name LeftLeg
      direction 0.000000 -1.000000 0.000000
      length 16.501392
      axis 0.0 0.0 0.0 xyz
      dof rx ry rz
   end
   begin
      id 25
      name LeftFoot
      direction 0.000000 -0.258819 0.965926
      length 6.408245
      axis 15.0 0.0 0.0 xyz
      dof rx ry rz
   end
   begin
      id 26
      name LeftToeBase
      direction 0.000000 0.000000 1.000000
      length 2.952750
      axis 0.0 0.0 0.0 xyz
      dof rx ry rz
   end
   begin
      id 27
      name RightUpLeg
      direction 0.000000 -1.000000 0.000000
      length 16.181467
      axis 0.0 0.0 0.0 xyz
      dof rx ry rz
   end
   begin
      id 28
      name RightLeg
      direction 0.000000 -1.000000 0.000000
      length 16.501392
      axis 0.0 0.0 0.0 xyz
      dof rx ry rz
   end
   begin
      id 29
      name RightFoot
      direction 0.000000 -0.258819 0.965926
      length 6.408245
      axis 15.0 0.0 0.0 xyz
      dof rx ry rz
   end
   begin
      id 30
      name RightToeBase
      direction 0.000000 0.000000 1.000000
      length 2.952750
      axis 0.0 0.0 0.0 xyz
      dof rx ry rz
   end
:hierarchy
   begin
      root Spine_dum LeftUpLeg_dum RightUpLeg_dum
      Spine_dum Spine
      LeftUpLeg_dum LeftUpLeg
      RightUpLeg_dum RightUpLeg
      Spine Spine_dum1 Spine_dum2 Spine_dum3
      Spine_dum1 Head
      Spine_dum2 LeftShoulder
      Spine_dum3 RightShoulder
      LeftShoulder LeftArm
      LeftArm LeftForeArm
      LeftForeArm LeftHand
      LeftHand LeftHand_dum1 LeftHand_dum2
      LeftHand_dum1 LeftHandThumb1
      RightShoulder RightArm
      RightArm RightForeArm
      RightForeArm RightHand
      RightHand RightHand_dum1 RightHand_dum2
      RightHand_dum1 RightHandThumb1
      LeftUpLeg LeftLeg
      LeftLeg LeftFoot
      LeftFoot LeftToeBase
      RightUpLeg RightLeg
      RightLeg RightFoot
      RightFoot RightToeBase
   end

# File created by Blade
# Date/Time:  Wed Apr 08 17:31:39 2015
# Frame Rate: 120.000 fps
#------------------------------------------------------
:FULLY-SPECIFIED
:DEGREES
258
root 4.714050 30.033933 -0.237313 -428.477724 -88.676251 268.054309
Spine 197.605755 -1.238293 1.199463
Head 6.095369 9.067108 0.697783
LeftShoulder 2.123226 6.496548 36.359634
LeftArm 39.593658 0.955756 -48.042318
LeftForeArm 12.651464 0.000000 46.389312
LeftHand -9.169510 -0.000000 -9.040990
LeftHandThumb1 -26.253704 0.000000 33.147579
RightShoulder -5.113072 -35.416803 -32.738840
RightArm 69.772737 18.562676 39.545297
RightForeArm 5.761787 -0.000000 34.922556
RightHand 5.153394 -0.000000 0.593400
RightHandThumb1 -24.326973 -0.000000 -32.862282
LeftUpLeg 121.391423 -18.050924 -1.018945
LeftLeg 71.963525 -0.000000 -0.000000
LeftFoot -33.760259 4.956802 -6.246802
LeftToeBase 5.057296 -0.000000 -0.000000
RightUpLeg 124.740109 21.765892 -1.193362
RightLeg 68.363326 -0.000000 -0.000000
RightFoot -35.975284 5.022931 7.829448
RightToeBase 6.938359 -0.000000 -0.000000
259
root 4.906605 29.819300 -0.282537 -429.694417 -88.756466 267.222191
Spine 199.703350 -1.326520 1.215031
Head 6.270414 9.009681 0.631965
LeftShoulder 2.332992 6.283557 36.381413
LeftArm 39.858514 0.496767 -47.302145
LeftForeArm 12.678573 -0.000000 46.384279
LeftHand -8.994612 -0.000000 -9.176861
LeftHandThumb1 -26.253704 0.000000 33.147579
RightShoulder -4.848106 -35.194189 -33.051593
RightArm 69.665925 18.949974 39.209708
RightForeArm 5.580405 -0.000000 34.790782
RightHand 5.181793 -0.000000 0.855096
RightHandThumb1 -24.326973 -0.000000 -32.862282
LeftUpLeg 122.523287 -18.117546 -1.568544
LeftLeg 73.072179 -0.000000 -0.000000
LeftFoot -33.933546 4.908655 -6.171693
LeftToeBase 5.165978 -0.000000 -0.000000
RightUpLeg 125.853119 21.610742 -0.416356
RightLeg 69.722706 -0.000000 -0.000000
RightFoot -36.353054 4.913823 7.849545
RightToeBase 6.979777 -0.000000 -0.000000
260
root 5.095364 29.598792 -0.328081 -431.055316 -88.881839 266.678295
Spine 201.685820 -1.356286 1.255665
Head 6.419567 9.059071 0.534220
LeftShoulder 2.533270 6.073763 36.377386
LeftArm 40.097281 0.019008 -46.543859
LeftForeArm 12.694542 -0.000000 46.363015
LeftHand -8.813653 -0.000000 -9.207217
LeftHandThumb1 -26.253704 0.000000 33.147579
RightShoulder -4.549471 -34.946011 -33.404527
RightArm 69.568686 19.356016 38.839986
RightForeArm 5.494724 -0.000000 34.561046
RightHand 5.335230 -0.000000 0.979846
RightHandThumb1 -24.326973 -0.000000 -32.862282
LeftUpLeg 123.520885 -18.100451 -2.059690
LeftLeg 74.173933 -0.000000 -0.000000
LeftFoot -34.106838 4.881979 -6.115507
LeftToeBase 5.210929 -0.000000 -0.000000
RightUpLeg 126.783413 21.526122 0.308954
RightLeg 71.106455 -0.000000 -0.000000
RightFoot -36.698182 4.897849 7.857864
RightToeBase 6.942831 -0.000000 -0.000000
261
root 5.284266 29.376257 -0.381403 -433.941620 -89.000075 267.787110
Spine 203.575058 -1.348476 1.319585
Head 6.563876 9.127339 0.447460
LeftShoulder 2.756926 5.808233 36.369214
LeftArm 40.246967 -0.449341 -45.667476
LeftForeArm 12.679723 -0.000000 46.265016
LeftHand -8.717245 -0.000000 -9.252324
LeftHandThumb1 -26.253704 0.000000 33.147579
RightShoulder -4.196502 -34.575506 -33.792582
RightArm 69.418086 19.700805 38.517979
RightForeArm 5.354213 -0.000000 34.298927
RightHand 5.261233 -0.000000 1.020856
RightHandThumb1 -24.326973 -0.000000 -32.862282
LeftUpLeg 124.384533 -18.014600 -2.555474
LeftLeg 75.259433 -0.000000 -0.000000
LeftFoot -34.274823 4.873713 -6.062870
LeftToeBase 5.345109 -0.000000 -0.000000
RightUpLeg 127.593466 21.405475 0.951101
RightLeg 72.472413 -0.000000 -0.000000
RightFoot -37.139921 4.697084 7.753135
RightToeBase 7.153352 -0.000000 -0.000000
262
root 5.466460 29.147843 -0.427084 -440.778149 -89.092926 273.064604
Spine 205.278426 -1.270008 1.327745
Head 6.691850 9.241859 0.306995
LeftShoulder 3.059004 5.329616 36.427482
LeftArm 40.161449 -0.845762 -44.923580
LeftForeArm 12.587010 -0.000000 46.115217
LeftHand -8.680514 -0.000000 -9.274007
LeftHandThumb1 -26.253704 0.000000 33.147579
RightShoulder -3.804713 -34.182682 -34.238416
RightArm 69.220995 20.070867 38.152449
RightForeArm 5.199346 -0.000000 34.076693
RightHand 5.206856 0.000000 1.171420
RightHandThumb1 -24.326973 -0.000000 -32.862282
LeftUpLeg 124.997921 -17.828616 -3.011027
LeftLeg 76.388492 -0.000000 -0.000000
LeftFoot -34.408009 4.794965 -6.111914
LeftToeBase 5.232212 -0.000000 -0.000000
RightUpLeg 128.188861 21.305758 1.489089
RightLeg 73.829415 -0.000000 -0.000000
RightFoot -37.562865 4.494452 7.699023
RightToeBase 7.230289 -0.000000 -0.000000
263
root 5.650953 28.914458 -0.465942 -448.265994 -89.176964 278.933173
Spine 207.030718 -1.172399 1.333940
Head 6.821662 9.408118 0.195174
LeftShoulder 3.268193 5.112728 36.412607
LeftArm 40.360401 -1.364629 -44.092339
LeftForeArm 12.432950 -0.000000 45.824187
LeftHand -8.551978 -0.000000 -9.340053
LeftHandThumb1 -26.253704 0.000000 33.147579
RightShoulder -3.402441 -33.818480 -34.675055
RightArm 69.022694 20.477459 37.719641
RightForeArm 5.022006 -0.000000 33.768348
RightHand 5.490204 -0.000000 1.466906
RightHandThumb1 -24.326973 -0.000000 -32.862282
LeftUpLeg 125.649367 -17.604494 -3.458548
LeftLeg 77.529773 -0.000000 -0.000000
LeftFoot -34.562766 4.854128 -6.101772
LeftToeBase 5.227575 -0.000000 -0.000000
RightUpLeg 128.826736 21.279825 2.042761
RightLeg 75.184247 -0.000000 -0.000000
RightFoot -37.932160 4.402836 7.589457
RightToeBase 7.262441 -0.000000 -0.000000
264
root 5.834345 28.678385 -0.506842 -455.672595 -89.226122 284.883632
Spine 208.658091 -1.101797 1.332981
Head 6.894109 9.532080 0.107438
LeftShoulder 3.461976 4.851944 36.453533
LeftArm 40.619193 -1.844608 -43.245108
LeftForeArm 12.348567 -0.000000 45.355546
LeftHand -8.443268 0.000000 -9.392786
LeftHandThumb1 -26.253704 0.000000 33.147579
RightShoulder -2.980264 -33.375048 -35.134137
RightArm 68.759116 20.874071 37.317178
RightForeArm 4.886581 -0.000000 33.450478
RightHand 5.224104 -0.000000 1.462728
RightHandThumb1 -24.326973 -0.000000 -32.862282
LeftUpLeg 126.111648 -17.396874 -3.875648
LeftLeg 78.682302 -0.000000 -0.000000
LeftFoot -34.717017 4.950072 -6.063838
LeftToeBase 5.310239 -0.000000 -0.000000
RightUpLeg 129.297463 21.163715 2.518884
RightLeg 76.522233 -0.000000 -0.000000
RightFoot -38.297299 4.267313 7.510769
RightToeBase 7.331233 -0.000000 -0.000000
265
root 6.017561 28.438716 -0.556387 -449.820590 -89.280096 277.544767
Spine 210.296996 -1.235328 1.376365
Head 6.979843 9.633685 0.105728
LeftShoulder 3.647975 4.579867 36.582913
LeftArm 40.886222 -2.308512 -42.483466
LeftForeArm 12.262071 -0.000000 44.802110
LeftHand -8.392905 -0.000000 -9.464139
LeftHandThumb1 -26.253704 0.000000 33.147579
RightShoulder -2.560605 -33.007984 -35.517508
RightArm 68.539983 21.334004 36.949078
RightForeArm 4.627589 -0.000000 33.122926
RightHand 5.339271 -0.000000 1.651238
RightHandThumb1 -24.326973 -0.000000 -32.862282
LeftUpLeg 126.631497 -17.397351 -4.319605
LeftLeg 79.835348 -0.000000 -0.000000
LeftFoot -34.883848 5.030806 -5.988683
LeftToeBase 5.394439 -0.000000 -0.000000
RightUpLeg 129.761017 20.787240 2.972701
RightLeg 77.851086 -0.000000 -0.000000
RightFoot -38.624302 4.042658 7.417073
RightToeBase 7.503012 -0.000000 -0.000000
266
root 6.203229 28.197123 -0.581845 -459.984850 -89.268277 286.219032
Spine 211.937900 -1.152733 1.289626
Head 7.091009 9.724735 0.053041
LeftShoulder 3.856230 4.267707 36.678943
LeftArm 41.164540 -2.702607 -41.736998
LeftForeArm 12.154849 -0.000000 44.151424
LeftHand -8.312336 -0.000000 -9.489523
LeftHandThumb1 -26.253704 0.000000 33.147579
RightShoulder -2.149433 -32.656480 -35.945827
RightArm 68.252195 21.785249 36.520125
RightForeArm 4.426608 -0.000000 32.842194
RightHand 5.493679 0.000000 1.885382
RightHandThumb1 -24.326973 -0.000000 -32.862282
LeftUpLeg 127.084799 -17.084887 -4.769350
LeftLeg 81.004180 -0.000000 -0.000000
LeftFoot -35.027035 5.190749 -5.941312
LeftToeBase 5.549944 -0.000000 -0.000000
RightUpLeg 130.273218 20.665657 3.429136
RightLeg 79.146612 -0.000000 -0.000000
RightFoot -38.955372 3.990675 7.519734
RightToeBase 7.520436 -0.000000 -0.000000
267
root 6.386974 27.951713 -0.609908 -460.427536 -89.260562 285.285027
Spine 213.496765 -1.217977 1.193591
Head 7.131328 9.749299 -0.007888
LeftShoulder 4.106181 3.929642 36.828663
LeftArm 41.405652 -3.121217 -41.000062
LeftForeArm 12.185658 0.000000 43.492878
LeftHand -8.202505 -0.000000 -9.577136
LeftHandThumb1 -26.253704 0.000000 33.147579
RightShoulder -1.780953 -32.317911 -36.371363
RightArm 67.968852 22.243498 36.126132
RightForeArm 4.278811 -0.000000 32.531163
RightHand 5.509189 -0.000000 1.791032
RightHandThumb1 -24.326973 -0.000000 -32.862282
LeftUpLeg 127.417149 -16.887552 -5.196047
LeftLeg 82.202063 -0.000000 -0.000000
LeftFoot -35.131881 5.343060 -5.907324
LeftToeBase 5.566295 -0.000000 -0.000000
RightUpLeg 130.628745 20.414024 3.799652
RightLeg 80.432894 -0.000000 -0.000000
RightFoot -39.212648 3.748905 7.362990
RightToeBase 7.451525 -0.000000 -0.000000
268
root 6.562785 27.703992 -0.641408 -460.168686 -89.308420 283.739137
Spine 214.954381 -1.354319 1.111717
Head 7.221031 9.725198 -0.025594
LeftShoulder 4.416593 3.580371 37.003268
LeftArm 41.669182 -3.555858 -40.310616
LeftForeArm 12.151956 -0.000000 42.786971
LeftHand -8.156163 -0.000000 -9.642771
LeftHandThumb1 -26.253704 0.000000 33.147579
RightShoulder -1.477877 -32.091819 -36.735990
RightArm 67.717746 22.752654 35.738794
RightForeArm 4.193860 -0.000000 32.217148
RightHand 5.521828 -0.000000 1.763634
RightHandThumb1 -24.326973 -0.000000 -32.862282
LeftUpLeg 127.703948 -16.730617 -5.555409
LeftLeg 83.348433 -0.000000 -0.000000
LeftFoot -35.255494 5.409900 -5.897231
LeftToeBase 5.545366 -0.000000 -0.000000
RightUpLeg 130.881622 20.146205 4.184507
RightLeg 81.730408 -0.000000 -0.000000
RightFoot -39.510831 3.620101 7.391242
RightToeBase 7.599700 -0.000000 -0.000000
269
root 6.735818 27.453272 -0.672689 -459.470237 -89.394387 281.749317
Spine 216.397468 -1.578280 0.990305
Head 7.348066 9.598212 -0.045304
LeftShoulder 4.899257 2.852448 37.282866
LeftArm 41.648062 -3.892190 -39.963288
LeftForeArm 12.404452 0.000000 42.065216
LeftHand -8.028219 -0.000000 -9.824508
LeftHandThumb1 -26.253704 0.000000 33.147579
RightShoulder -1.271363 -31.882228 -37.029397
RightArm 67.385659 23.221672 35.286066
RightForeArm 4.154325 -0.000000 31.942539
RightHand 5.468659 -0.000000 1.828421
RightHandThumb1 -24.326973 -0.000000 -32.862282
LeftUpLeg 128.011457 -16.574186 -5.876372
LeftLeg 84.469546 -0.000000 -0.000000
LeftFoot -35.385684 5.499686 -5.858565
LeftToeBase 5.566176 -0.000000 -0.000000
RightUpLeg 131.123631 19.872000 4.592525
RightLeg 83.040816 -0.000000 -0.000000
RightFoot -39.796618 3.428544 7.332987
RightToeBase 7.707062 -0.000000 -0.000000
